<svg width="32" height="32" viewBox="0 0 32 32" fill="none" xmlns="http://www.w3.org/2000/svg">
<circle cx="16" cy="16" r="16" transform="rotate(-180 16 16)" fill="#51468C"/>
<mask id="mask0_20_3006" style="mask-type:alpha" maskUnits="userSpaceOnUse" x="10" y="13" width="12" height="6">
<path d="M18.7459 15.3359L11.4059 15.3359C11.0393 15.3359 10.7393 15.6359 10.7393 16.0026C10.7393 16.3692 11.0393 16.6692 11.4059 16.6692L18.7459 16.6692L18.7459 17.8626C18.7459 18.1626 19.1059 18.3092 19.3126 18.0959L21.1659 16.2359C21.2926 16.1026 21.2926 15.8959 21.1659 15.7626L19.3126 13.9026C19.1059 13.6892 18.7459 13.8426 18.7459 14.1359L18.7459 15.3359Z" fill="black"/>
</mask>
<g mask="url(#mask0_20_3006)">
<rect x="8" y="8" width="16" height="16" fill="white"/>
</g>
</svg>
