<svg width="32" height="32" viewBox="0 0 32 32" fill="none" xmlns="http://www.w3.org/2000/svg">
<circle cx="16" cy="16" r="16" fill="#51468C"/>
<mask id="mask0_20_3005" style="mask-type:alpha" maskUnits="userSpaceOnUse" x="10" y="13" width="12" height="6">
<path d="M13.2541 16.6641L20.5941 16.6641C20.9607 16.6641 21.2607 16.3641 21.2607 15.9974C21.2607 15.6308 20.9607 15.3308 20.5941 15.3308L13.2541 15.3308L13.2541 14.1374C13.2541 13.8374 12.8941 13.6908 12.6874 13.9041L10.8341 15.7641C10.7074 15.8974 10.7074 16.1041 10.8341 16.2374L12.6874 18.0974C12.8941 18.3108 13.2541 18.1574 13.2541 17.8641L13.2541 16.6641Z" fill="black"/>
</mask>
<g mask="url(#mask0_20_3005)">
<rect x="24" y="24" width="16" height="16" transform="rotate(-180 24 24)" fill="white"/>
</g>
</svg>
