<svg width="46" height="45" viewBox="0 0 46 45" fill="none" xmlns="http://www.w3.org/2000/svg">
<path d="M0 45L1.00977 43.8435C1.561 43.2121 2.12424 42.594 2.69903 41.9892L7.55579 36.5715C9.19097 34.9844 11.1649 33.8239 13.3045 33.161C22.9302 26.8878 34.2768 23.4777 46 23.5373C38.7555 29.2685 29.8066 32.4202 20.5695 32.4938L17.4369 32.5187C16.0232 32.53 14.6319 32.7497 13.3045 33.161C9.4675 35.6616 5.90395 38.6172 2.69903 41.9892L0 45Z" fill="url(#paint0_linear_31_45)"/>
<path d="M26.7224 23.5287L22.6711 23.5081C20.3695 23.4964 18.4237 24.9007 16.556 26.2486L16.5104 26.2815C14.9087 27.4373 18.9763 24.1055 19.5004 22.1996C19.9636 20.5152 19.7453 18.5461 20.1904 16.8569C20.6785 15.0046 21.8532 13.9327 23.3644 12.7578C24.7927 11.6475 26.1144 12.1727 27.4584 10.9616C33.4384 5.57292 39.1884 0 39.1884 0C39.1884 0 30.0804 10.3629 27.8264 13.3566C26.3006 15.3831 27.3204 21.6929 26.7224 23.5287Z" fill="url(#paint1_linear_31_45)"/>
<path d="M0 44.9962L7.55579 36.5678C10.2054 33.9959 13.7445 32.5444 17.4369 32.515L22.54 32.4744C22.54 32.4744 19.918 35.7848 15.732 37.7653C12.346 39.3672 10.1046 39.0536 6.808 40.2984C3.74825 41.4538 0 44.9962 0 44.9962Z" fill="url(#paint2_linear_31_45)"/>
<ellipse cx="23.9645" cy="15.5638" rx="0.736" ry="0.736915" fill="white"/>
<defs>
<linearGradient id="paint0_linear_31_45" x1="46.046" y1="23.3992" x2="7.3991" y2="34.1517" gradientUnits="userSpaceOnUse">
<stop stop-color="#A8D5FE"/>
<stop offset="0.854167" stop-color="#2145FF"/>
</linearGradient>
<linearGradient id="paint1_linear_31_45" x1="39.2312" y1="-0.875085" x2="16.1057" y2="26.5006" gradientUnits="userSpaceOnUse">
<stop stop-color="#295C67"/>
<stop offset="0.533051" stop-color="#303881"/>
<stop offset="1" stop-color="#744392"/>
</linearGradient>
<linearGradient id="paint2_linear_31_45" x1="22.586" y1="32.5148" x2="0.0341516" y2="44.1904" gradientUnits="userSpaceOnUse">
<stop stop-color="#4755A0"/>
<stop offset="0.395833" stop-color="#24C8EC"/>
<stop offset="0.90625" stop-color="#428BF9"/>
</linearGradient>
</defs>
</svg>
